<svg xmlns="http://www.w3.org/2000/svg" xmlns:xlink="http://www.w3.org/1999/xlink" viewBox="0,0,256,256" width="50px" height="50px" fill-rule="nonzero"><g fill="#dee8fc" fill-rule="nonzero" stroke="none" stroke-width="1" stroke-linecap="butt" stroke-linejoin="miter" stroke-miterlimit="10" stroke-dasharray="" stroke-dashoffset="0" font-family="none" font-weight="none" font-size="none" text-anchor="none" style="mix-blend-mode: normal"><g transform="scale(5.12,5.12)"><path d="M25,5c-9.377,0 -17,7.623 -17,17c0,9.377 7.623,17 17,17c9.377,0 17,-7.623 17,-17c0,-9.377 -7.623,-17 -17,-17zM38.80078,5c0,0 1.4,2.29358 2,2.89258c0.7,0.599 2.29883,1.39648 2.29883,1.39648c0,0 -0.79883,-2.19419 -1.79883,-2.99219c-1,-0.798 -2.5,-1.29687 -2.5,-1.29687zM11.30078,5.19922c0,0 -2.20039,0.79809 -2.90039,1.49609c-1.3,1.297 -1.59961,2.89453 -1.59961,2.89453c0,0 1.39961,-0.69948 2.59961,-1.89648c1,-0.998 1.90039,-2.49414 1.90039,-2.49414zM43.19922,6.69727c0,0 0.30156,0.89788 0.60156,1.29688c0.3,0.499 0.29922,1.49614 0.69922,2.49414c0.4,0.998 0.70039,1.4957 0.40039,1.5957c-0.2,0.1 -0.90078,-0.39944 -1.30078,-0.89844c-0.5,-0.499 -1.39961,-0.79787 -2.09961,-1.29688c-0.7,-0.4 -1.09961,-0.79883 -1.09961,-0.79883c0,0 0.4,1.49631 1.5,2.19531c0.6,0.399 2.20039,1.5967 2.90039,2.0957c0.7,0.499 1,0.99805 1,0.99805c0,0 -0.00078,-3.79128 -0.30078,-4.98828c-0.4,-1.197 -2.30078,-2.69336 -2.30078,-2.69336zM7,6.79688c0,0 -1.90039,1.09519 -2.40039,2.49219c-0.4,1.097 -0.20039,2.19597 -0.40039,3.29297c-0.2,1.097 0.10156,1.89453 0.10156,1.89453c0,0 0.09883,-0.29905 0.79883,-0.99805c0.7,-0.699 1.70039,-1.0967 2.40039,-1.5957c1.6,-1.097 2.30078,-2.79297 2.30078,-2.79297c0,0 -0.90039,0.79866 -1.40039,1.09766c-0.4,0.2 -1.30039,0.6967 -1.90039,1.0957c-0.5,0.299 -0.80078,1.29688 -0.80078,1.29688c0,0 -0.59844,-0.4977 -0.39844,-1.0957c0.2,-0.599 0.49961,-1.09827 0.59961,-1.69727c0.1,-0.598 0.29961,-1.49553 0.59961,-1.89453c0.2,-0.399 0.5,-1.0957 0.5,-1.0957zM24.81055,7.00977v2.26953c-1.96,0.02 -3.80117,0.50031 -5.45117,1.32031c-1.19,0.59 -2.26875,1.34953 -3.21875,2.26953l-1.61133,-1.60937c2.65927,-2.59268 6.27801,-4.20009 10.28125,-4.25zM25.18945,7.00977c4.00074,0.04988 7.61659,1.65626 10.27539,4.24609l-1.29492,1.29492c-0.06,0.02 -0.12016,0.02 -0.16016,0c-0.12,-0.04 0.04102,-0.16016 0.04102,-0.16016v-0.13086l-0.08984,-0.09961c0,0 -0.28102,0.03023 -0.29102,-0.00976c-0.02,-0.05 -0.07031,-0.26953 -0.07031,-0.26953l-0.00977,-0.28125l-0.11914,-0.03906l-0.00977,-0.09961l-0.18164,0.00976v-0.19141l-0.09961,-0.03906l-0.08984,-0.04101l-0.01953,-0.19922l-0.35937,-0.01953l-0.11133,-0.16016l-0.12891,-0.20117l-0.40039,-0.0293l-0.09961,-0.09961l-0.16016,-0.0293l-0.11133,-0.05078l-0.04883,0.08008l-0.31055,0.01953l-0.00977,0.09961c-0.1,0.04 -0.36055,0.04102 -0.56055,0.04102c-0.33,-0.16 -0.65023,-0.31117 -0.99023,-0.45117c-1.44,-0.58 -2.98984,-0.89992 -4.58984,-0.91992zM27.4707,7.75c-0.07,0.01 -0.14039,0.04031 -0.15039,0.07031c-0.005,0.035 -0.03234,0.05516 -0.05859,0.06641c-0.02625,0.01125 -0.05078,0.01367 -0.05078,0.01367l-0.37109,0.03906c-0.015,0.045 -0.07195,0.08547 -0.12695,0.10547c-0.055,0.02 -0.10828,0.01938 -0.11328,-0.01562c-0.01,-0.02 -0.0193,-0.03906 -0.0293,-0.03906c-0.035,0 -0.07734,0.05805 -0.08984,0.12305c-0.00625,0.0325 -0.00562,0.0657 0.00781,0.0957c0.01344,0.03 0.03953,0.05531 0.08203,0.07031c0.21,0.07 0.41992,0 0.41992,0l0.03906,-0.09961l0.81055,0.01953c0.07,-0.07 0.09961,-0.16992 0.09961,-0.16992c0,0 0.02055,-0.00953 0.06055,-0.01953v-0.18945h-0.08984h-0.29102c-0.005,-0.03 -0.02328,-0.04859 -0.05078,-0.05859c-0.0275,-0.01 -0.06266,-0.01172 -0.09766,-0.01172zM26.08008,8.08008l-0.21094,0.08984l-0.21875,0.14063l-0.25,0.03906l-0.13086,0.14063l0.51953,0.04883l0.10156,0.17188l0.36914,0.0293l0.24023,0.24023c0.0525,0.0175 0.09477,0.02469 0.12695,0.02344c0.03219,-0.00125 0.05516,-0.01234 0.06641,-0.02734c0.01125,-0.015 0.01031,-0.03484 0,-0.05859c-0.01031,-0.02375 -0.03,-0.05063 -0.0625,-0.07812l-0.21094,-0.2207v-0.17969l-0.06055,-0.05859l-0.07031,-0.23047zM24.81055,9.66016v2.60937c-1.46,0.03 -2.83055,0.38047 -4.06055,0.98047c-0.92,0.45 -1.76023,1.04023 -2.49023,1.74023l-1.84961,-1.84961c0.94,-0.91 1.97914,-1.65094 3.11914,-2.21094h0.00977c1.63,-0.8 3.41148,-1.23953 5.27148,-1.26953zM25.18945,9.66016c1.55,0.02 3.05117,0.33039 4.45117,0.90039c0.27,0.11 0.53883,0.22938 0.79883,0.35938c-0.02,0.05 -0.05008,0.09961 -0.08008,0.09961c-0.08,0 -0.04883,0.21094 -0.04883,0.21094c0,0 0.20953,-0.00023 0.26953,0.00976c0.07,0.02 0.07031,0.17969 0.07031,0.17969c0.24,-0.01 0.33883,0.32039 0.29883,0.40039c-0.03,0.08 0.10156,0.08008 0.10156,0.08008c0,0 -0.00125,0.26008 -0.03125,0.33008c-0.03,0.06 0.20953,0.10898 0.26953,0.20898c0.07,0.1 -0.02813,0.43141 -0.07812,0.44141c-0.05,0.02 0.12914,0.06844 0.11914,0.14844c-0.02,0.08 0.04055,0.00086 0.06055,0.13086c0.02,0.13 0.04883,0.41016 0.04883,0.41016l0.2207,0.01953c0.04,-0.22 0.44953,-0.21922 0.51953,-0.19922c0.28,0.1 0.49023,0.51914 0.49023,0.61914c0,0.1 -0.17969,0.12109 -0.17969,0.12109l0.00977,0.09961l-0.57031,0.57031c-0.06,-0.04 -0.12039,-0.05125 -0.15039,-0.03125c-0.08,0.04 -0.04883,-0.34961 -0.04883,-0.34961c0,0 0.14898,-0.10078 0.20898,-0.05078c0.06,0.05 -0.54969,-0.81852 -0.67969,-0.72852c-0.13,0.08 -0.42039,-0.09047 -0.40039,-0.23047c0,-0.16 -0.58008,-0.64062 -0.58008,-0.64062c0,0 -0.19852,-0.1293 -0.22852,-0.0293c-0.03,0.09 -0.1,0.15899 0,0.20899c0.1,0.05 0.07922,-0.07875 0.19922,0.03125c0.11,0.12 0.32023,0.25938 0.24023,0.35938c-0.08,0.1 -0.17969,0.13086 -0.17969,0.13086l0.10938,0.12891h0.17969l0.03125,0.28125c0,0 0.19828,0.09899 0.23828,0.20899c0.04,0.08 0.05101,0.12969 0.04102,0.17969c-0.36,-0.28 -0.74086,-0.53 -1.13086,-0.75v-0.08008c-0.04,-0.12 0.13094,-0.1593 0.21094,-0.0293l0.16016,-0.01953l0.0293,-0.15039l-0.23047,-0.17969h-0.16992c0,0 -0.01891,0.13008 -0.12891,0.08008c-0.12,-0.04 -0.05039,-0.03102 -0.15039,-0.04102c-0.08,-0.02 -0.07078,0.16 -0.05078,0.25c-0.25,-0.13 -0.49977,-0.24937 -0.75977,-0.35937c-1.1,-0.45 -2.28,-0.6907 -3.5,-0.7207v-1.43945c0.11,0.01 0.15016,-0.03008 0.16016,-0.08008c0.02,-0.06 0.04086,-0.07961 0.13086,-0.09961c0.1,-0.01 -0.01133,-0.20945 -0.11133,-0.18945c-0.07,0.01 -0.13969,-0.01055 -0.17969,-0.06055zM32.5,10.06055c-0.065,0 -0.14578,0.02164 -0.20703,0.05664c-0.03063,0.0175 -0.05523,0.03805 -0.07227,0.06055c-0.01703,0.0225 -0.02648,0.04727 -0.02148,0.07227c0.005,0.04 0.02555,0.07953 0.06055,0.11328c0.035,0.03375 0.08539,0.06117 0.15039,0.07617l0.24023,0.08008c0,0 0.07469,0.0907 0.14844,0.1582c0.07375,0.0675 0.14563,0.11149 0.14063,0.02149c-0.0075,-0.1225 -0.02766,-0.21375 -0.05469,-0.28516c-0.02703,-0.07141 -0.06008,-0.12203 -0.0957,-0.16016c-0.07125,-0.07625 -0.14945,-0.1043 -0.18945,-0.1543c-0.02,-0.03 -0.04961,-0.03906 -0.09961,-0.03906zM46.69922,10.58594c0,0 0.20078,0.89614 0.30078,1.49414c0.1,0.599 -0.09922,2.99419 -0.19922,3.49219c-0.1,0.499 0.19844,1.79553 -0.10156,1.89453c-0.3,0.1 -1.19844,-1.49497 -1.89844,-2.29297c-0.6,-0.796 -2.10156,-1.69531 -2.10156,-1.69531c0,0 0.70156,1.29753 1.10156,2.39453c0.5,1.097 1.69883,2.3938 2.29883,3.0918c0.6,0.698 0.80078,1.29688 0.80078,1.29688c0,0 0.29922,-0.99692 0.69922,-1.79492c0.8,-1.397 0.70078,-1.7968 0.80078,-3.5918c0,-1.796 -1.70117,-4.28906 -1.70117,-4.28906zM3.19922,10.68555c0,0 -1.39961,1.8958 -1.59961,3.5918c-0.2,1.696 -0.10039,3.09106 0.59961,4.28906c0.5,0.798 0.60156,1.89648 0.60156,1.89648c0,0 0.19883,-0.59927 0.79883,-1.19727c0.6,-0.599 1.60078,-1.49636 2.30078,-2.69336c0.7,-1.197 1.29883,-2.79297 1.29883,-2.79297c0,0 -1.09883,0.59927 -1.79883,1.19726c-1.6,1.396 -2.40039,2.79297 -2.40039,2.79297c0,0 -0.40078,-0.39905 -0.30078,-0.99805c0.3,-0.498 0.40078,-1.3967 0.30078,-2.0957c-0.1,-0.599 -0.29961,-0.99692 -0.09961,-1.79492c0.1,-0.797 0.29883,-2.19531 0.29883,-2.19531zM14.25977,11.5293l1.60938,1.61133c-0.95,0.98 -1.74984,2.10938 -2.33984,3.35938c-0.78,1.61 -1.23,3.41055 -1.25,5.31055h-2.26953c0.04991,-4.00324 1.65732,-7.62198 4.25,-10.28125zM35.74023,11.5293c2.59056,2.65709 4.19758,6.27215 4.25,10.27148h-2.25977c-0.03,-1.57 -0.34039,-3.09172 -0.90039,-4.51172c-0.08,-0.2 -0.16976,-0.40938 -0.25977,-0.60937c0.02,-0.08 0.06969,-0.18039 0.17969,-0.15039c0.16,0.05 0.05078,-0.35937 0.05078,-0.35937c0,0 -0.23094,-0.16024 -0.21094,-0.24023c0.01,-0.08 -0.22899,-0.25055 -0.20898,-0.31055c0,-0.07 -0.20117,-0.19977 -0.20117,-0.25977c0.02,-0.07 -0.10938,-0.25 -0.10938,-0.25l-0.24023,-0.22852l-0.0293,-0.15039l-0.20117,-0.00977l-0.37891,-0.48047l0.00977,-0.13086l-0.11133,-0.01953v-0.17969l-0.10937,-0.06055l-0.17969,-0.01953l-0.35937,-0.39062l-0.03125,-0.17969h-0.17969l0.0293,-0.2793zM28.18945,11.85938c-0.01,0 -0.0293,0.01148 -0.0293,0.02148c0,0.05 0.06961,0.04844 0.09961,0.14844c0.015,0.05 0.02031,0.11633 0.03906,0.17383c0.00937,0.02875 0.0218,0.05594 0.04102,0.07813c0.01922,0.02219 0.04508,0.03883 0.08008,0.04883c0.075,0.015 0.11969,0.03078 0.14844,0.05078c0.02875,0.02 0.04078,0.04508 0.05078,0.08008c0.005,0.03 0.05336,0.05 0.09961,0.0625c0.04625,0.0125 0.0918,0.01562 0.0918,0.01562l0.12891,0.06055l0.39063,0.33008v-0.12891c0,0 -0.00453,-0.03391 -0.01953,-0.06641c-0.015,-0.0325 -0.04008,-0.06445 -0.08008,-0.06445c-0.04,0 -0.09812,-0.02414 -0.14062,-0.05664c-0.0425,-0.0325 -0.07078,-0.07352 -0.05078,-0.10351c0.015,-0.035 -0.0532,-0.06945 -0.12695,-0.0957c-0.07375,-0.02625 -0.15234,-0.04492 -0.15234,-0.04492c0,0 -0.0668,-0.065 -0.12305,-0.125c-0.05625,-0.06 -0.10164,-0.11375 -0.05664,-0.09375c0.025,0.0075 0.04141,0.00398 0.05078,-0.00586c0.00937,-0.00984 0.01172,-0.02609 0.01172,-0.04297c0,-0.03375 -0.01172,-0.07226 -0.01172,-0.07226c0,0 -0.19023,0.03148 -0.24023,0.02148c-0.025,-0.01 -0.03391,-0.05375 -0.03516,-0.09375c-0.00125,-0.04 0.00391,-0.07617 0.00391,-0.07617c0,0 -0.10992,-0.02148 -0.16992,-0.02148zM24.81055,12.66016v2.87891c-0.91,0.03 -1.77078,0.24133 -2.55078,0.61133c-0.62,0.29 -1.18945,0.68039 -1.68945,1.15039l-2.04102,-2.04101c0.72,-0.69 1.52062,-1.24992 2.39063,-1.66992c1.2,-0.58 2.52062,-0.89969 3.89063,-0.92969zM25.18945,12.66016c1.17,0.02 2.29961,0.25945 3.34961,0.68945c0.29,0.12 0.58156,0.25039 0.85156,0.40039c0.01,0.01 0.02883,0.0193 0.04883,0.0293c0.46,0.24 0.89055,0.53156 1.31055,0.85156c0.01,0.12 0.14063,0.16992 0.14063,0.16992l0.07031,0.00977c0.06,0.04 0.1082,0.07891 0.1582,0.12891v0.14063c0.11,-0.03 0.28031,0.09898 0.32031,0.20898l-2.00977,2.01172c-0.57,-0.54 -1.22945,-0.97172 -1.93945,-1.26172c-0.72,-0.3 -1.50078,-0.47 -2.30078,-0.5zM16.14063,13.41016l1.84961,1.84961c-0.75,0.78 -1.36031,1.68016 -1.82031,2.66016c-0.55,1.19 -0.87039,2.50062 -0.90039,3.89063h-2.60937c0.03,-1.81 0.43922,-3.55086 1.19922,-5.13086c0.57,-1.19 1.33125,-2.29953 2.28125,-3.26953zM32.61914,14.65039c0.23,0.13 0.40109,0.44023 0.37109,0.49023c-0.03,0.07 0.18945,0.04883 0.18945,0.04883c0.03,-0.29 0.31031,-0.19961 0.32031,-0.09961c0.02,0.1 0.07031,0.31055 0.07031,0.31055l0.08008,0.15039l0.10938,0.11914l0.17969,-0.01953l0.05078,0.09961l0.20898,0.0293c0,0 0.18141,0.2 0.19141,0.25c0.02,0.05 0.26031,0.03078 0.32031,0.05078c0.07,0.01 0.16969,0.06062 0.17969,0.14063c0.02,0.09 0.11914,0.21875 0.11914,0.21875c0,0 0.19094,0.05133 0.21094,0.11133c0.01,0.07 0.08984,0.20898 0.08984,0.20898l0.16016,0.14063l0.01953,0.13867l0.17969,0.02148l0.05078,0.19922l0.28906,-0.01953l0.16016,-0.12109c0.05,-0.02 0.09086,-0.05008 0.13086,-0.08008c0.06,0.13 0.11992,0.27039 0.16992,0.40039c0.55,1.38 0.84914,2.85133 0.86914,4.36133h-2.60937c-0.01,-0.46 -0.06086,-0.92109 -0.13086,-1.37109c0.02,-0.06 0.03,-0.12063 0,-0.14063c-0.05,-0.05 0.05078,-0.2793 0.05078,-0.2793c0,0 0.07,-0.12977 0,-0.25977c-0.06,-0.14 0.02031,-0.27961 0.07031,-0.34961l-0.13086,-0.06055l-0.12891,-0.01953l-0.10156,0.01953c-0.03,-0.11 -0.05961,-0.21055 -0.09961,-0.31055v-0.00977l0.08008,0.01953v-0.09961l-0.10937,-0.0293c-0.03,-0.07 -0.05031,-0.13922 -0.07031,-0.19922l-0.0293,-0.3418l-0.11133,-0.08008l0.03125,-0.12891l-0.13086,-0.05078l0.07031,-0.21875l-0.10937,-0.23047h-0.16992c-0.07,-0.15 -0.16024,-0.30094 -0.24023,-0.46094c0.01,-0.01 0.02836,-0.0193 0.06836,-0.0293c0.08,-0.02 0.11086,-0.01953 0.13086,-0.01953l-0.01953,-0.16992l-0.14062,-0.09961l-0.04883,-0.20117c0,0 -0.18016,0.04086 -0.16016,0.13086c0,0.03 -0.01125,0.03859 -0.03125,0.05859c-0.12,-0.18 -0.22937,-0.35906 -0.35937,-0.53906c0.01,-0.01 0.00977,-0.01953 0.00977,-0.01953c0.07,-0.12 0.03992,-0.1807 -0.08008,-0.2207c-0.11,-0.03 -0.11062,-0.03016 -0.14062,-0.16016c-0.03,-0.13 -0.16016,-0.16016 -0.16016,-0.16016l-0.04883,-0.19922l-0.12109,0.07031c-0.07,-0.07 -0.12922,-0.1407 -0.19922,-0.2207l0.06055,-0.17969c-0.06,-0.01 -0.10133,-0.04984 -0.11133,-0.08984zM18.25977,15.5293l2.04102,2.04102c-0.42,0.45 -0.78055,0.95953 -1.06055,1.51953c-0.08,0 -0.14016,0.01031 -0.16016,0.07031c-0.05,0.13 -0.25977,0.08984 -0.25977,0.08984l-0.03125,0.07031l-0.16992,0.0293l-0.0293,0.09961l-0.18945,0.03125l0.48047,-0.00977c0.13,-0.02 -0.04086,0.27977 -0.13086,0.25977l-0.2207,0.01953l-0.08008,0.08008h-0.20898l-0.09961,0.13086l-0.30078,-0.02148c0,0 -0.16992,0.14117 -0.16992,0.20117c0.02,0.05 -0.03008,0.19922 -0.08008,0.19922c-0.05,0 -0.13938,0.13945 -0.10937,0.18945c0.03,0.05 -0.09961,0.2207 -0.09961,0.2207l-0.03125,0.16016l-0.09961,0.0293v0.44141l-0.18945,0.13867v0.19141l-0.08984,0.09961h-1.31055c0.02,-1.3 0.31984,-2.56117 0.83984,-3.70117c0.43,-0.94 1.01977,-1.81008 1.75977,-2.58008zM31.71094,15.56055c0.07,0.07 0.05844,0.09016 0.14844,0.16016c0.03,0.02 0.05984,0.0293 0.08984,0.0293l0.15039,0.17969l-0.0293,0.05078c0,0.19 0.08992,0.12914 0.16992,0.11914c0.03,0.03 0.06008,0.05984 0.08008,0.08984c0.01,0.11 0.00969,0.27 0.17969,0.25h0.00977c0.21,0.28 0.40031,0.57133 0.57031,0.86133l0.00977,0.01953c0.03,0.05 0.06008,0.10039 0.08008,0.15039c-0.03,0.03 -0.05078,0.05859 -0.05078,0.05859l-0.25977,0.04102v0.25977l-0.12891,0.05078l0.01953,0.1582l0.16992,-0.00977c0,0 0.00078,0.19133 0.05078,0.11133c0.05,-0.08 0.44992,0.01898 0.41992,0.20898c-0.01,0.08 0.40937,0.30055 0.35938,0.56055c0.03,0 0.06008,0.0093 0.08008,0.0293c0.08,0.22 0.13898,0.44969 0.20898,0.67969l-0.03906,0.06055c0,0 0.03055,0.02078 0.06055,0.05078c0.05,0.2 0.09891,0.40938 0.12891,0.60938c-0.01,0.18 -0.04867,0.35039 -0.13867,0.40039c-0.19,0.12 0.01953,0.04883 0.01953,0.04883l-0.03125,0.36133c0.05,0.17 0.13188,0.09 0.17188,0c0.03,-0.04 0.05813,-0.06984 0.07812,-0.08984c0.03,0.25 0.05078,0.49023 0.05078,0.74023h-1.94922c0.01,-0.01 0.0293,-0.04102 0.0293,-0.04102l0.08008,-0.23047l0.2793,-0.08008l0.03125,-0.20898l-0.14062,-0.01953c0,0 0.16023,-0.30078 0.24023,-0.30078c0.08,0 0.61016,0.0007 0.66016,-0.0293c0.05,-0.03 0.14063,-0.28984 0.14063,-0.33984c0,-0.05 0.12969,-0.07008 0.17969,-0.08008c0.05,-0.02 0.15922,-0.1507 0.19922,-0.2207c0.03,-0.06 -0.09039,-0.47016 -0.15039,-0.41016c-0.06,0.07 -0.20898,0.09961 -0.20898,0.09961l-0.05078,0.17969l-0.08008,0.07031c0,0 0.02,0.05016 0,0.16016c-0.01,0.12 -0.16016,0.17969 -0.16016,0.17969l-0.05859,0.08008c0,0 -0.39141,0.02 -0.44141,0c-0.15,-0.06 -0.04922,-0.26023 0.05078,-0.24023c0.09,0.01 -0.01953,-0.2793 -0.01953,-0.2793l0.12891,-0.01953c0,0 0.02031,-0.29102 0.07031,-0.29102c0.04,0 -0.01984,-0.09844 -0.08984,-0.14844c-0.06,-0.05 -0.14094,-0.21117 -0.21094,-0.20117c-0.06,0.02 -0.31836,0 -0.31836,0l-0.05078,0.09961l-0.16992,0.03125c0,0 0.01047,0.12992 -0.01953,0.16992c-0.1,0.11 -0.47055,0.35922 -0.31055,-0.05078l0.05078,-0.09961v-0.15039l-0.29102,-0.00977c0,0 -0.14062,-0.04914 -0.14062,-0.11914c0,-0.06 -0.01953,-0.14062 -0.01953,-0.14062l-0.33984,-0.38086l-0.40039,-0.04883l-0.0293,-0.08008l-0.25,-0.04102c-0.03,-0.01 -0.06961,-0.02906 -0.09961,-0.03906c-0.12,-0.18 -0.24109,-0.34953 -0.37109,-0.51953c0,-0.02 -0.00977,-0.03102 -0.00977,-0.04102c-0.02,-0.06 -0.18906,-0.31031 -0.28906,-0.32031c-0.04,-0.04 -0.07133,-0.07914 -0.11133,-0.11914zM33.30078,15.75977c-0.03,0.01 -0.04102,0.02078 -0.04102,0.05078c0,0.035 0.02086,0.05969 0.03711,0.08594c0.01625,0.02625 0.02867,0.05375 0.01367,0.09375c-0.015,0.045 -0.00828,0.08313 0.01172,0.10938c0.02,0.02625 0.05289,0.04102 0.08789,0.04102c0.06,0 0.10969,0.03031 0.17969,0.07031c0.06,0.03 0.11016,0.07867 0.16016,0.13867l0.16016,-0.03906c0,0 0.00305,-0.04383 -0.00195,-0.08008c-0.0025,-0.01812 -0.00812,-0.03406 -0.01562,-0.04297c-0.0075,-0.00891 -0.0182,-0.01055 -0.0332,0.00195c-0.03,0.025 -0.05719,-0.00266 -0.08594,-0.03516c-0.02875,-0.0325 -0.05875,-0.06945 -0.09375,-0.06445c-0.06,0.02 -0.09016,-0.06062 -0.16016,-0.14062c-0.06,-0.09 -0.04891,-0.09844 -0.12891,-0.14844c-0.04,-0.03 -0.06984,-0.04101 -0.08984,-0.04101zM24.81055,15.92969v2.62109c-0.35,0.01 -0.67047,0.07922 -0.98047,0.19922h-0.00977l-0.00977,-0.17969l0.08008,-0.05078l-0.13086,-0.04883l-0.09961,0.12891l-0.0293,0.15039l-0.16016,0.0293v0.08008h-0.12109v0.10156c-0.23,0.13 -0.45016,0.27898 -0.66016,0.45898l-1.84961,-1.84961c0.48,-0.45 1.01961,-0.81008 1.59961,-1.08008c0.74,-0.34 1.54109,-0.54055 2.37109,-0.56055zM25.18945,15.92969c0.75,0.02 1.48016,0.1807 2.16016,0.4707c0.66,0.27 1.27055,0.66992 1.81055,1.16992l-0.10937,0.10938c-0.05,-0.06 -0.23047,-0.09039 -0.23047,-0.15039c0,-0.06 -0.16062,-0.13883 -0.14062,-0.04883c0.01,0.1 -0.11039,0.14914 -0.15039,0.11914c-0.03,-0.03 -0.12891,0.09961 -0.12891,0.09961c0,0.05 -0.02969,0.11086 0.07031,0.13086c0.1,0.02 0.26906,-0.0707 0.28906,0.0293c0,0.03 0.00953,0.05984 0.01953,0.08984l-0.63867,0.64063c-0.09,0 -0.16992,-0.00977 -0.16992,-0.00977c-0.05,0.15 -0.28094,-0.00937 -0.21094,-0.10937c0.06,-0.1 0.06055,-0.16992 0.06055,-0.16992l-0.08008,-0.01172l-0.08984,0.18164c-0.23,0 -0.29,0.12898 -0.25,0.20898c0.05,0.08 -0.05984,-0.02039 -0.08984,0.09961c-0.04,0.11 0.00937,0.11016 0.10938,0.16016c0.1,0.05 -0.05047,0.05086 0.01953,0.13086c0.04,0.06 0.13016,0.03883 0.16016,0.04883l-0.11914,0.13086c-0.11,0.03 -0.24023,0 -0.24023,0c0,0.04 -0.02078,0.06008 -0.05078,0.08008c-0.26,-0.22 -0.53961,-0.38953 -0.84961,-0.51953c0.05,-0.04 0.13969,-0.03039 0.17969,-0.15039c0.06,-0.18 0.08984,-0.4707 0.08984,-0.4707c0,0 -0.25953,-0.01945 -0.26953,0.06055c-0.02,0.09 -0.17969,0.14063 -0.17969,0.14063c0,0 -0.13008,0.04938 -0.08008,0.10938c0.05,0.07 -0.09961,0.09961 -0.09961,0.09961c0,0 0.00977,0.03984 0.00977,0.08984c-0.26,-0.08 -0.52078,-0.12867 -0.80078,-0.13867zM33.7793,16.49023l-0.18945,0.00977c0.02,0.035 0.05594,0.065 0.08594,0.09375c0.03,0.02875 0.05469,0.05594 0.05469,0.08594c0,0.035 -0.00891,0.06539 -0.00391,0.08789c0.005,0.0225 0.02422,0.03797 0.07422,0.04297c0.045,0.01 0.08469,0.00672 0.11719,0.01172c0.0325,0.005 0.05727,0.01859 0.07227,0.05859c0.03,0.08 0.02953,0.2093 0.01953,0.2793c-0.01,0.03 -0.00719,0.06906 0.00781,0.10156c0.015,0.0325 0.04203,0.05859 0.08203,0.05859c0.04,0 0.06508,0.00437 0.08008,0.01563c0.015,0.01125 0.01953,0.02969 0.01953,0.05469c0.04,-0.04 0.10156,-0.17969 0.10156,-0.17969c-0.045,-0.035 -0.08313,-0.09047 -0.10937,-0.13672c-0.02625,-0.04625 -0.04102,-0.08398 -0.04102,-0.08398c0,0 -0.08008,-0.22977 -0.08008,-0.25977c0,-0.03 -0.11016,-0.06008 -0.16016,-0.08008c-0.05,-0.02 -0.13086,-0.16016 -0.13086,-0.16016zM32.21094,16.83008c0,0 -0.02281,0.03164 -0.07031,0.05664c-0.0475,0.025 -0.1207,0.04367 -0.2207,0.01367c0,0 -0.00734,0.07711 -0.02734,0.16211c-0.02,0.085 -0.05352,0.17703 -0.10352,0.20703h-0.21875c0,0 0.04984,0.08086 0.08984,0.13086c0.025,0.025 0.06664,0.06156 0.08789,0.10156c0.01063,0.02 0.01656,0.04055 0.01172,0.06055c-0.00484,0.02 -0.01883,0.03914 -0.04883,0.05664c-0.055,0.03 -0.05,0.04383 -0.03125,0.04883c0.01875,0.005 0.05078,0.00195 0.05078,0.00195c0,0 -0.01149,0.19109 -0.07617,0.26563c-0.02156,0.02484 -0.04898,0.03789 -0.08398,0.02539c-0.0375,-0.0125 -0.06992,-0.00781 -0.0957,0.00781c-0.02578,0.01563 -0.04492,0.04031 -0.06055,0.07031c-0.03125,0.06 -0.04492,0.13687 -0.04492,0.17188c0,0.045 0.32797,0.07164 0.45313,0.04492c0.04172,-0.00891 0.05961,-0.02242 0.03711,-0.04492c-0.025,-0.025 -0.00953,-0.06922 0.01172,-0.10547c0.02125,-0.03625 0.04883,-0.06641 0.04883,-0.06641c0,0 0.3907,0.03125 0.4707,0.03125c0.04,0 0.07641,-0.00313 0.09766,-0.01562c0.02125,-0.0125 0.02695,-0.03422 0.00195,-0.07422c-0.025,-0.045 -0.07539,-0.06211 -0.11914,-0.06836c-0.04375,-0.00625 -0.08203,-0.00195 -0.08203,-0.00195c0,0 -0.18914,0.04922 -0.36914,-0.05078c-0.0425,-0.025 -0.0607,-0.04563 -0.06445,-0.0625c-0.00375,-0.01687 0.00789,-0.02906 0.02539,-0.03906c0.035,-0.02 0.09437,-0.02734 0.10938,-0.02734c0.015,0 0.05664,-0.02766 0.08789,-0.06641c0.01563,-0.01938 0.03,-0.04148 0.03516,-0.06445c0.00516,-0.02297 0.00133,-0.04781 -0.01367,-0.07031c-0.03,-0.04 -0.02898,-0.09602 -0.02148,-0.13477c0.0075,-0.03875 0.02148,-0.06039 0.02148,-0.02539c0,0.07 0.18094,0.10078 0.21094,0.05078c0.015,-0.025 0.01375,-0.075 0,-0.125c-0.01375,-0.05 -0.04008,-0.1 -0.08008,-0.125c-0.02,-0.0125 -0.02094,-0.02406 -0.01172,-0.03516c0.00922,-0.01109 0.0275,-0.02133 0.04688,-0.0332c0.01937,-0.01187 0.04031,-0.02422 0.05078,-0.03906c0.01047,-0.01484 0.01164,-0.03273 -0.00586,-0.05273c-0.06,-0.08 -0.09961,-0.17969 -0.09961,-0.17969zM49.30078,17.26953c0,0 -0.30039,0.8977 -0.40039,1.5957c-0.2,0.798 -1.10039,1.89653 -1.40039,2.89453c-0.3,1.097 -0.3,1.79492 -0.5,1.79492c-0.2,0 -0.49961,-0.69749 -0.59961,-1.39648c0,-0.599 -0.89961,-1.69597 -1.59961,-2.79297c-0.4,-0.898 -0.80078,-1.29687 -0.80078,-1.29687c0,0 0.1,3.19224 0.5,3.99023c0.5,0.998 0.99961,1.89401 1.59961,3.29102c0.39066,0.9096 0.43544,1.12227 0.42383,1.17383c0.03712,-0.03727 0.38633,-0.39002 0.57617,-0.67383c0.2,-0.299 1.49961,-1.3978 2.09961,-3.5918c0.6,-2.194 0.10156,-4.98828 0.10156,-4.98828zM46.52344,26.52344c-0.00199,0.002 -0.02344,0.02344 -0.02344,0.02344c0,0 0.01722,0.00419 0.02344,-0.02344zM0.5,17.4707c0,0 -0.20078,3.49089 0.19922,5.08789c0.7,2.594 2.70117,4.18945 2.70117,4.18945c0,0 0.19961,-0.89888 0.59961,-1.79687c0.4,-0.898 1.10039,-1.79614 1.40039,-2.49414c0.5,-1.397 0.69922,-3.98828 0.69922,-3.98828c0,0 -0.50039,0.69787 -0.90039,1.29688c-0.4,0.599 -0.89844,1.29731 -1.39844,2.19531c-0.4,0.998 -0.50039,1.79553 -0.90039,1.89453c-0.6,0.1 -0.09961,-0.8987 -0.59961,-2.0957c-0.5,-1.197 -1.30039,-2.4938 -1.40039,-3.0918c-0.1,-0.599 -0.40039,-1.19727 -0.40039,-1.19727zM34.32031,17.50977c-0.015,0.005 -0.0082,0.05352 -0.00195,0.10352c0.00625,0.05 0.01219,0.10219 -0.00781,0.11719c-0.05,0.03 -0.08086,0.10039 -0.13086,0.15039c-0.025,0.025 0,0.05258 0.03125,0.08008c0.03125,0.0275 0.06836,0.05312 0.06836,0.07812c0,0.05 0.03125,0.30078 0.03125,0.30078c0,0 0.10891,0.04938 0.12891,0.10938c0.01,0.035 0.00992,0.08641 0.01367,0.12891c0.00375,0.0425 0.01211,0.07703 0.03711,0.08203c0.025,0.01 0.05898,0.03305 0.08398,0.06055c0.025,0.0275 0.04039,0.05984 0.02539,0.08984c-0.03,0.07 -0.0293,0.19922 -0.0293,0.19922l0.06055,0.15039l0.12891,0.08008c0,0 0.01313,-0.09992 0.01563,-0.20117c0.00125,-0.05063 -0.00125,-0.10172 -0.00781,-0.14062c-0.00656,-0.03891 -0.01711,-0.06586 -0.03711,-0.06836c-0.04,-0.01 -0.05219,-0.07281 -0.05469,-0.13281c-0.0025,-0.06 0.00391,-0.11719 0.00391,-0.11719c0,0 0.01969,-0.0768 0.02344,-0.1543c0.00187,-0.03875 0.00102,-0.07836 -0.00977,-0.10742c-0.01078,-0.02906 -0.03,-0.04883 -0.0625,-0.04883c-0.03,0 -0.04695,-0.00961 -0.05664,-0.02539c-0.00969,-0.01578 -0.01242,-0.03742 -0.01367,-0.06055c-0.0025,-0.04625 -0.00102,-0.09805 -0.04102,-0.12305c-0.04,-0.025 -0.04758,-0.09547 -0.04883,-0.16797c-0.00125,-0.0725 0.00523,-0.14664 -0.00977,-0.18164c-0.02,-0.03 -0.03187,-0.06586 -0.04688,-0.09961c-0.015,-0.03375 -0.03422,-0.0668 -0.07422,-0.0918c-0.01,-0.01 -0.00953,-0.00977 -0.01953,-0.00977zM27.94922,17.83008c-0.05,0 -0.08984,0.01953 -0.08984,0.01953l-0.25977,0.03125l-0.01953,0.10938l0.17969,0.01953c0,0 0.08008,0.05937 0.08008,0.10938c0,0.025 0.0282,0.05156 0.06445,0.07031c0.03625,0.01875 0.08023,0.03125 0.11523,0.03125c0.06,0 0.24023,-0.13086 0.24023,-0.13086c0,0 0.0207,-0.05828 0.0332,-0.11328c0.0125,-0.055 0.01633,-0.1057 -0.01367,-0.0957c-0.035,0.005 -0.08445,0.03117 -0.12695,0.04492c-0.0425,0.01375 -0.07703,0.01484 -0.08203,-0.03516c-0.01,-0.04 -0.07109,-0.06055 -0.12109,-0.06055zM20.57031,17.83984l1.58008,1.58008h-0.15039c-0.07,0.14 -0.23047,-0.01953 -0.23047,-0.01953c-0.03,-0.1 -0.25977,0 -0.25977,0c0,0.18 -0.29883,-0.08008 -0.29883,-0.08008l-0.57031,-0.41016c-0.32,-0.3 -0.80031,0.08016 -0.82031,0.16016c0.01,0.13 -0.10117,0.12938 -0.20117,0.10938c0.25,-0.48 0.57117,-0.92984 0.95117,-1.33984zM27.44922,17.91016l-0.34961,0.01953v0.09961l0.34961,-0.01953zM29.51953,18.10938c0,0 0.09969,0.01102 0.17969,0.04102c0.07,0.09 0.1507,0.1893 0.2207,0.2793l-0.20898,-0.0293l-0.13086,-0.00977l-0.24023,-0.02148c-0.24,0.16 -0.28906,0.36133 -0.28906,0.36133c-0.11,0.21 -0.35156,-0.01016 -0.35156,-0.16016l0.43164,-0.42969h0.08008c0.1,0 0.30859,-0.03125 0.30859,-0.03125zM29.91992,18.43945c0.06,0.08 0.11969,0.17 0.17969,0.25c-0.02,0.05 -0.02953,0.10039 -0.01953,0.15039c0.05,0.25 0.1307,0.34961 -0.0293,0.34961c-0.16,0 -0.19141,-0.12891 -0.19141,-0.12891c0,0 -0.12891,-0.05023 -0.12891,0.00977c0,0.07 -0.05,0.19953 0,0.26953c0.05,0.06 -0.07109,0.15938 -0.12109,0.10938c-0.04,-0.05 -0.16867,-0.2 -0.13867,-0.25c0.03,-0.04 -0.2307,-0.35844 0.0293,-0.39844c0.26,-0.05 -0.00992,-0.20047 0.08008,-0.23047l0.13086,-0.07031h0.12891zM24.9707,18.91992l0.0293,0.39063l-0.17969,-0.06055h-0.10937l-0.05078,-0.08984l-0.08984,-0.01953v0.35938l0.08984,0.08008l0.08008,0.08008l0.16992,0.01953l0.0293,0.20117l0.40039,0.00977l0.05078,0.08008l0.24023,0.01953l0.46875,0.48047l-0.0293,0.13867l-0.08008,0.05078c0.03,0.12 -0.21094,0.05078 -0.21094,0.05078v0.09961l0.11133,0.01953l0.10938,0.06055l0.16016,-0.28125c0.18,-0.11 0.2593,0.05039 0.2793,0.15039c0.01,0.1 -0.08008,0.08008 -0.08008,0.08008v0.23047l0.08984,0.0293c0.17,0.2 -0.05859,0.32031 -0.05859,0.32031l-0.05078,0.16016c-0.05,0.15 -0.2207,0.10938 -0.2207,0.10938l-0.06836,0.09961l-0.19141,0.05078l0.38086,0.05078c0.04,-0.13 0.12969,-0.16156 0.17969,-0.10156c0.05,0.07 0.05078,0.18164 0.05078,0.18164l0.09961,0.01953l-0.01953,0.17969l0.09961,0.0293v0.53125l0.10938,0.12891c0.19,-0.09 0.19961,0.05133 0.09961,0.11133c-0.1,0.07 -0.0293,0.35938 -0.0293,0.35938l-0.08008,0.08008v0.12891l-0.09961,0.07031v0.17969c-0.16,-0.08 -0.36016,-0.05 -0.41016,0c-0.14,-0.1 -0.45117,-0.06852 -0.45117,0.02148c0.1,0.13 -0.10937,0.16016 -0.10937,0.16016l-0.10938,0.12891c0.08,0.17 -0.08008,0.17969 -0.08008,0.17969v0.31055l-0.20117,0.17969l0.01172,0.29102c-0.1,0.01 -0.20078,0.01953 -0.30078,0.01953c-0.75,0 -1.4693,-0.26953 -2.0293,-0.76953c0.01,0 0.0193,-0.01125 0.0293,-0.03125c0.08,-0.13 0.21094,-0.14844 0.21094,-0.14844l0.04883,-0.11133l0.42969,0.01953c0.04,-0.18 0.25,-0.11906 0.25,-0.03906c0,0.09 0.16016,0.01953 0.16016,0.01953l0.11133,-0.17969h0.17969l0.00977,-0.19922l0.08984,-0.05078v-0.28906c0.25,-0.08 0.2207,-0.33008 0.2207,-0.33008l0.06836,-0.08008l-0.03906,-0.11133c-0.13,-0.05 -0.06047,-0.16867 0.01953,-0.13867c0.08,0.04 -0.10937,-0.14062 -0.10937,-0.14062c-0.1,0.08 -0.17969,-0.09961 -0.17969,-0.09961h-0.24023v-0.23047l-0.04102,-0.20898l-0.24023,-0.12109l-0.16992,0.16992l-0.03906,0.2207v0.15039l-0.16016,0.0293l-0.0293,0.44922l-0.13086,0.05078l0.01953,0.16016l-0.35937,0.09961l-0.0293,0.21094l-0.13086,0.08008l-0.06055,0.19922l-0.08008,0.45898c-0.23,-0.23 -0.41859,-0.49906 -0.55859,-0.78906c0.03,-0.12 0.03906,-0.23047 0.03906,-0.23047c-0.15,-0.06 -0.07039,-0.28961 0.09961,-0.09961c0.16,0.2 -0.09961,-0.39062 -0.09961,-0.39062l-0.12891,-0.10937l-0.16992,-0.01953c-0.02,-0.16 -0.04102,-0.32047 -0.04102,-0.48047c0,-0.07 0.00977,-0.13922 0.00977,-0.19922c0.05,-0.05 0.09961,-0.02148 0.09961,-0.02148l0.10156,0.08008l0.14844,0.11133l0.00977,0.09961l-0.09961,0.04883l-0.00977,0.13086l0.05078,0.17969h0.12891c0.04,-0.26 0.38047,-0.25961 0.48047,-0.09961l0.09961,-0.23047c-0.23,-0.11 -0.00945,-0.28898 0.06055,-0.20898c0.06,0.08 0.21094,-0.21094 0.21094,-0.21094c0,0 0.11,0.14117 0,-0.04883c-0.11,-0.2 0.07812,-0.30078 0.07812,-0.30078c-0.03,-0.19 0.21094,-0.16016 0.21094,-0.16016l0.01953,-0.25977l-0.23047,-0.01953c-0.05,0.23 -0.23867,0.02852 -0.13867,-0.02148c0.09,-0.04 0.18945,-0.13867 0.18945,-0.13867v-0.16992l0.09961,-0.03125l0.00977,-0.16016h0.25l0.21094,-0.09961l0.03906,-0.08008l0.23047,-0.01953l0.32031,-0.28906l-0.0293,-0.14062c-0.19,0 0,-0.14062 0,-0.14062l0.0293,-0.25h-0.17969l-0.03125,-0.34961c0.22,-0.05 0.45164,-0.08008 0.68164,-0.08008zM17.99023,20.96094c0.15,0 0.26953,0.07812 0.26953,0.07812l0.2207,-0.01953c0.06,0.04 0.08914,0.08086 0.11914,0.13086c-0.02,0.15 -0.02906,0.29898 -0.03906,0.45898c-0.03,0.04 -0.05078,0.07031 -0.05078,0.07031c-0.01,0.03 -0.0193,0.07086 -0.0293,0.13086h-0.61133v-0.02148l-0.17969,-0.00977c-0.19,-0.12 -0.09961,-0.53906 -0.09961,-0.53906c0.14,-0.21 0.28039,-0.2693 0.40039,-0.2793zM23.59961,21.26953l-0.0293,0.08008h-0.08008l-0.01953,0.13086h0.09961l0.00977,0.09961l-0.06055,0.06055l-0.0293,0.08984l-0.13086,0.0293l-0.28906,0.2793l-0.01953,0.13086l-0.08008,0.10938l-0.10156,0.25l-0.33984,0.02148l-0.05859,0.28906l0.04883,0.25l0.29102,0.10938l0.0293,-0.16016l0.09961,-0.04883l0.00977,-0.16992l0.07031,-0.10937l0.08984,-0.12109l0.04102,-0.12891l0.16016,-0.0918l0.18945,-0.03906l0.08008,-0.09961l0.03906,-0.19141l0.01172,-0.14844l0.06836,-0.10156l0.19141,-0.07812v-0.31055h-0.10156l-0.00977,-0.12109zM10.00977,22.18945h2.26953c0.01,1.21 0.20102,2.39148 0.54101,3.52148c0.01,0.04 0.02906,0.06938 0.03906,0.10937h-0.47852l-0.03125,-0.08008l-0.16016,-0.0293l-0.01953,-0.18164l-0.24023,0.00977l-0.04883,0.10156l-0.26172,0.01953c0.02,0.16 -0.25906,0.40984 -0.28906,0.33984c-0.03,-0.06 -0.21086,-0.2393 -0.13086,-0.2793c0.08,-0.03 0.29101,-0.06055 0.29101,-0.06055v-0.12109l-0.59961,-0.00977l-0.06055,0.10156l-0.24023,0.00977v0.25977l-0.05664,0.01953c-0.32139,-1.19209 -0.50734,-2.43943 -0.52344,-3.73047zM12.66016,22.18945h2.60938c0.01,0.39 0.03984,0.77062 0.08984,1.14063c-0.18,0.02 -0.34961,0.08008 -0.34961,0.08008l-0.08008,0.26953c-0.18,0.03 -0.28906,0.32031 -0.28906,0.32031c-0.15,0.05 -0.26094,0.2293 -0.21094,0.2793c0.05,0.05 -0.08008,0.07031 -0.08008,0.07031v0.36133l-0.08008,0.10937l0.00977,0.40039c0.1,0 0.08008,0.17969 0.08008,0.17969c-0.16,0.01 -0.11914,0.23047 -0.11914,0.23047l-0.33984,0.10938l-0.07031,0.09961l-0.41992,-0.01953l-0.10937,0.11914c-0.04,-0.11 -0.07156,-0.22008 -0.10156,-0.33008h-0.00977c-0.33,-1.09 -0.5093,-2.23992 -0.5293,-3.41992zM15.66016,22.18945h1.12891l0.01172,0.08984l-0.24023,0.27148l0.0293,0.25977l-0.14062,0.04883l-0.0293,0.11133l-0.07031,0.34961l0.16016,0.00977c0.08,-0.03 0.07,0.21 0,0.25c-0.06,0.03 -0.24062,0.10016 -0.14062,0.16016c0.09,0.07 -0.25977,0.04922 -0.25977,-0.05078c0,-0.1 -0.19023,-0.18039 -0.24023,-0.15039c-0.03,0.02 -0.06961,-0.02812 -0.09961,-0.07812c-0.06,-0.41 -0.09938,-0.84148 -0.10937,-1.27148zM17.33008,22.18945h0.08008c0.04,0.01 0.07031,0.03125 0.07031,0.03125l0.23047,0.00977l0.01953,-0.04102h0.76953l0.06055,0.41992l-0.21094,0.17969c-0.17,0.1 -0.17047,0.33086 0.01953,0.38086c0.13,0.01 0.08063,0.32937 -0.10937,0.10938c-0.21,0 -0.0407,0.13117 0.0293,0.20117c0.01,0.01 0.02148,0.00977 0.02148,0.00977c0.27,0.13 0.19922,-0.14062 0.19922,-0.14062l0.15039,-0.11914c0.06,0.32 0.14977,0.63945 0.25977,0.93945c0.29,0.83 0.76086,1.59977 1.38086,2.25977l-2.04102,2.04102c-0.13,-0.14 -0.25891,-0.28164 -0.37891,-0.43164c0.02,-0.1 0.08984,-0.19922 0.08984,-0.19922c0.21,-0.14 -0.05078,-0.34961 -0.05078,-0.34961c0.03,-0.19 -0.11914,-0.41992 -0.11914,-0.41992c-0.29,-0.2 -0.21094,-0.58008 -0.21094,-0.58008v-0.25977c-0.24,-0.23 0.09961,-0.25977 0.09961,-0.25977c0.11,-0.2 -0.08008,-0.35156 -0.08008,-0.35156l-0.01953,-0.20898l-0.25,-0.0293l-0.03906,-0.77148l-0.58008,-0.83984c-0.11,-0.03 -0.03125,-0.23047 -0.03125,-0.23047c0.15,-0.08 -0.0293,-0.26953 -0.0293,-0.26953l-0.01953,-0.35937l0.33984,-0.04102l0.08008,-0.12891h0.16016l-0.00977,-0.41992c0.03,-0.08 0.06914,-0.12086 0.11914,-0.13086zM21.35938,22.18945h0.19141c0,0.12 0.0193,0.22984 0.0293,0.33984l-0.09961,0.03125l-0.03125,-0.06055l-0.04883,0.17969h-0.29102l-0.00977,-0.19922l0.16992,-0.05078l0.07031,-0.09961zM32.08008,22.18945h2.25977c-0.02,1.27 -0.31078,2.47984 -0.80078,3.58984c-0.44,0.99 -1.0393,1.88992 -1.7793,2.66992c-0.03,-0.33 -0.10937,-0.69922 -0.10937,-0.69922l-0.13086,-0.06055l0.03125,-0.38867h-0.16992l-0.29102,0.36914l-0.03906,0.10938l-0.16016,-0.16992l0.08008,-0.08008l-0.00977,-0.19922l0.10937,-0.09961v-0.16016l0.09961,-0.04102l0.00977,-0.35937l0.08008,-0.00977v-0.79102l-0.24023,-0.22852c-0.01,0.08 -0.26953,0.08008 -0.26953,0.08008c0,0 -0.06914,0.11914 -0.11914,0.11914c-0.04,0 0.06906,0.15023 0.03906,0.24023c-0.04,0.1 -0.16992,0.09961 -0.16992,0.09961l-0.24023,0.07031l-0.06055,0.08008h-0.25977l-0.01953,-0.14062c0.02,-0.03 0.05008,-0.06961 0.08008,-0.09961l0.19922,-0.06055l0.16016,-0.08008l0.08008,-0.16016c0.02,-0.16 0.21094,-0.14844 0.21094,-0.14844c0,0 0.36867,-0.31094 0.38867,-0.46094c0.01,-0.14 0.14109,-0.54883 0.37109,-0.54883h0.41992c0.16,-0.07 0.10938,-0.28125 0.10938,-0.28125l0.21094,-0.0293l0.0293,0.10938c0,0 0.29008,0.03047 0.33008,-0.01953c0.03,-0.05 0.08992,-0.15938 0.16992,-0.10937c0.08,0.05 0.33984,-0.12109 0.33984,-0.12109c0.02,-0.11 0.41992,-0.06055 0.41992,-0.06055l0.05078,-0.14844c0,0 -0.27031,-0.38086 -0.32031,-0.38086c-0.05,0 -0.30984,-0.23062 -0.33984,-0.14062c-0.26,-0.07 -0.24023,-0.42969 -0.24023,-0.42969l-0.09961,-0.23047c0,-0.13 -0.24102,-0.40914 -0.29102,-0.36914c-0.1,-0.08 -0.12914,-0.16047 -0.11914,-0.23047zM34.73047,22.18945h2.60938c-0.03,1.79 -0.44016,3.49125 -1.16016,5.03125c-0.58,1.24 -1.37031,2.37937 -2.32031,3.35938l-0.07031,-0.07031c-0.01,-0.18 -0.01953,-0.41016 -0.01953,-0.41016l-0.08984,-0.08984l-0.00977,-0.41016c0.06,-0.21 -0.30984,-0.51922 -0.33984,-0.44922c-0.03,0.06 -0.24023,0.01008 -0.24023,0.08008c0,0.06 -0.13031,0.38977 -0.07031,0.50977l-1,-1c0.79,-0.82 1.42109,-1.7593 1.87109,-2.7793c0.52,-1.17 0.80984,-2.45148 0.83984,-3.77148zM37.73047,22.18945h2.25977c-0.04988,4.00074 -1.65626,7.61659 -4.24609,10.27539l-1.60352,-1.60547c0.99,-1.03 1.79867,-2.18898 2.38867,-3.45898c0.76,-1.61 1.17117,-3.38094 1.20117,-5.21094zM17.71094,22.56055l0.00977,0.11914h0.08008c0.0325,0.0575 0.04867,0.13484 0.05664,0.21875c0.00797,0.08391 0.00758,0.17469 0.00195,0.25781c-0.01125,0.16625 -0.03906,0.30469 -0.03906,0.30469c0,0 -0.04711,0.00359 -0.09961,-0.00391c-0.0525,-0.0075 -0.11086,-0.02617 -0.13086,-0.07617c-0.0075,-0.025 -0.01867,-0.02555 -0.0293,-0.00977c-0.01063,0.01578 -0.01984,0.04641 -0.02734,0.08203c-0.015,0.07125 -0.01742,0.1625 0.01758,0.1875c0.03,0.025 0.10172,0.02477 0.16797,0.04102c0.03312,0.00812 0.06398,0.01961 0.08789,0.04102c0.02391,0.02141 0.04047,0.05266 0.04297,0.09766c0.01,0.09 0.04703,0.06172 0.08203,0.01172c0.035,-0.05 0.06836,-0.12109 0.06836,-0.12109v-1.12109zM19.00977,23.01953c0.14,0.05 0.30078,0.27055 0.30078,0.31055c0,0.05 0.63867,0.01953 0.63867,0.01953c0.18,0.11 0.24023,0.41016 0.24023,0.41016c0.18,-0.23 0.55125,-0.02062 0.28125,0.10938c0.26,0.17 0.25977,0.31055 0.25977,0.31055c0.21,-0.06 0.20898,0.10039 0.20898,0.15039c0.02,-0.06 0.06055,-0.25 0.06055,-0.25c-0.24,-0.18 0.32016,-0.24016 0.16016,0.08984l-0.09961,0.14063l0.16992,0.13867l0.00977,0.37109c0.36,-0.03 0.25977,-0.4707 0.25977,-0.4707l0.16016,-0.03906c0,-0.14 0.10938,-0.06055 0.10938,-0.06055c-0.07,-0.39 0.07969,-0.54914 0.17969,-0.61914c0.13,0.24 0.2907,0.46992 0.4707,0.66992l-1.84961,1.85938c-0.57,-0.61 -1.00125,-1.32008 -1.28125,-2.08008c-0.12,-0.34 -0.2093,-0.70055 -0.2793,-1.06055zM44.09961,23.6543c0,0 -0.39883,2.49519 -0.29883,3.49219c0.1,0.998 0.39883,2.59362 0.29883,3.89063c-0.1,1.397 -0.29883,1.99414 -0.29883,1.99414c0,0 4,-2.49311 5,-4.78711c0.6,-1.397 1.19922,-3.79102 1.19922,-3.79102c0,0 -0.20078,0.39927 -0.80078,1.19727c-0.6,0.898 -1.49922,1.19597 -2.19922,2.29297c-0.9,1.397 -1.80078,2.19531 -1.80078,2.19531c0,0 0.20156,-2.29319 0.10156,-2.99219c-0.1,-0.798 -1.20117,-3.49219 -1.20117,-3.49219zM6,23.85352c0,0 -1.20039,2.29541 -1.40039,4.19141c-0.1,1.097 0.3,2.29297 0,2.29297c-0.4,0.1 -1.5,-2.19497 -2,-2.79297c-0.6,-0.698 -0.99961,-0.9977 -1.59961,-1.5957c-0.6,-0.499 -1,-1.49609 -1,-1.49609c0,0 0.10078,0.99692 0.30078,1.79492c0.2,0.798 1.39922,3.39284 2.69922,4.58984c1.3,1.197 3.09961,2.39453 3.09961,2.39453c0,0 -0.09883,-0.99887 -0.29883,-1.79687c-0.2,-0.798 0.29844,-2.39402 0.39844,-3.79102c0.1,-1.397 -0.19922,-3.79102 -0.19922,-3.79102zM18.10938,23.85938l-0.24023,0.16016l-0.1582,-0.09961v0.39063l0.25977,0.34961l0.08984,-0.23047l0.03906,-0.15039l-0.11914,-0.04883l0.01953,-0.24023l0.09961,-0.01953zM24.08008,24.26953l-0.14062,0.00977l0.00977,0.23047l0.10156,0.08008l0.17969,0.05078c0,0 0.05859,-0.01469 0.12109,-0.05469c0.03125,-0.02 0.06453,-0.04633 0.08984,-0.08008c0.02531,-0.03375 0.04383,-0.075 0.04883,-0.125l-0.38086,-0.02148zM26.11914,24.39063c0.13,0 0.10156,0.32945 0.10156,0.43945c-0.1,0.04 -0.20078,0.06938 -0.30078,0.10938v-0.35937l0.16016,-0.17969c0.02,-0.01 0.02906,-0.00977 0.03906,-0.00977zM22.69922,24.58008c0.56,0.5 1.26172,0.79914 2.01172,0.86914c0,0 -0.02148,0.06133 -0.02148,0.11133c0,0.03 0.00125,0.04859 0.03125,0.05859c0.08,0.03 0.04984,0.04008 0.08984,0.08008l-0.04102,0.08008c-0.06,-0.08 -0.08859,0.07156 -0.05859,0.10156c0.04,0.04 -0.08008,0.01859 -0.08008,0.05859c0,0.05 -0.04,0.07961 0,0.09961c0.03,0.03 -0.02055,0.04008 -0.06055,0.08008c-0.05,0.03 0.19922,0.05078 0.19922,0.05078c0,0 -0.05023,-0.09961 0.00977,-0.09961h0.03125v0.16016c-0.02,0 -0.04031,-0.00953 -0.07031,-0.01953v0.11914l-0.13086,0.01953l0.12109,0.13086l0.08008,0.00977v0.2793c0,0.21 -0.53008,0.06953 -0.58008,0.01953l-0.01953,0.29102l-0.10156,0.01953l0.02148,0.20117l-0.02148,0.26953l0.17969,-0.03125v0.12109l0.44141,0.00977l0.08008,-0.08984v0.32031l-0.29102,0.0293l-0.12891,0.07031l-0.05078,-0.09961h-0.12891l-0.08008,0.10938c-0.38,-0.05 -0.76109,-0.13953 -1.12109,-0.26953c-0.8,-0.28 -1.53016,-0.72055 -2.16016,-1.31055zM28.63086,24.78906c0.04,0 0.06883,0.02008 0.04883,0.08008c-0.05,0.15 0,0.21094 0,0.21094c0.21,-0.19 0.39109,0.02031 0.37109,0.07031c-0.01,0.05 0.11922,0.09883 0.19922,0.04883c0.08,-0.05 0.17063,0.15023 0.14063,0.24023c-0.03,0.1 -0.31984,0.09023 -0.33984,-0.00977c-0.01,-0.1 -0.05984,-0.06953 -0.08984,-0.01953c-0.03,0.04 -0.1407,0.07078 -0.2207,0.05078l-0.07031,-0.07031c0.01,-0.02 0.02,-0.03055 0,-0.06055c-0.03,-0.03 -0.05984,-0.0293 -0.08984,-0.0293l-0.14062,-0.14062c0,-0.1 0.03148,-0.22953 0.02148,-0.26953c-0.01,-0.04 0.09992,-0.10156 0.16992,-0.10156zM26.2207,25.24023c0,0.04 0.0293,0.08984 0.0293,0.08984l0.08008,0.0293l-0.15039,0.12109l-0.12891,0.13867l-0.16016,-0.04883l-0.19141,-0.00977l-0.06836,-0.12109l-0.11133,-0.00977l-0.01953,0.23047l-0.08008,0.08984l-0.18945,0.19922c0.2,0 0.06875,0.11016 -0.03125,0.16016v-0.66016c0.21,-0.01 0.41133,-0.03984 0.61133,-0.08984l0.0293,0.03125h0.15039l0.00977,-0.08008c0.07,-0.02 0.1507,-0.04031 0.2207,-0.07031zM24.39063,25.56055c-0.0225,-0.0025 -0.04359,0.01125 -0.0625,0.03516c-0.01891,0.02391 -0.03711,0.05813 -0.05273,0.09375c-0.03125,0.07125 -0.05617,0.14969 -0.07617,0.17969c0,0 0.01055,0.03586 0.0293,0.06836c0.01875,0.0325 0.04703,0.06273 0.08203,0.05273c0.07,-0.01 0.11969,-0.05055 0.17969,-0.06055c0.03,-0.005 0.05281,-0.03156 0.07031,-0.07031c0.0175,-0.03875 0.02906,-0.08867 0.03906,-0.13867c0.015,-0.05 0.0107,-0.08492 0.00195,-0.10742c-0.00875,-0.0225 -0.02148,-0.0332 -0.02148,-0.0332c0,0 -0.06016,0.09 -0.16016,0c-0.01,-0.02 -0.0193,-0.01953 -0.0293,-0.01953zM27.69922,25.68945h0.11133l0.01953,0.08008l0.49023,0.05078h0.01953c0.2,0.11 0.10102,0.25906 0.04102,0.28906c-0.07,0.04 -0.18164,0.04102 -0.18164,0.04102l-0.0293,0.06055l-0.41992,0.03906l-0.03906,0.16016c-0.21,-0.03 -0.29023,0.20055 -0.24023,0.31055c0.05,0.12 0,0.20898 0,0.20898l0.17969,0.08984l0.23047,-0.07031c0.03,-0.16 0.16883,-0.19906 0.29883,-0.28906c0.13,-0.1 0.34125,0.18055 0.28125,0.31055c-0.01,0.01 -0.02148,0.01906 -0.02148,0.03906c-0.25,0.17 -0.5093,0.32117 -0.7793,0.45117c-0.42,0.21 -0.87961,0.36875 -1.34961,0.46875c-0.01,-0.01 -0.02148,-0.00977 -0.02148,-0.00977l-0.16992,-0.05078l-0.01953,-0.25c-0.03,-0.16 -0.34031,-0.15883 -0.32031,-0.04883c0.01,0.12 -0.58008,0.04883 -0.58008,0.04883v-0.44922l0.16016,-0.16992l0.37109,-0.08008c0.03,-0.17 0.18945,0.0293 0.18945,0.0293c0.16,-0.02 0.19922,0.10156 0.19922,0.10156l0.21094,0.0293c0.17,0.05 0.07008,0.07086 0.08008,0.13086c0.01,0.1 0.08984,0.06836 0.08984,0.06836l0.03906,-0.20898l0.0918,0.00977l-0.0918,-0.10937l-0.17969,-0.08984l-0.19922,-0.08008c-0.12,-0.18 0.03992,-0.14086 0.16992,-0.13086h0.20898c0,0 0.24023,0.33016 0.24023,0.41016c0,0.08 0.11133,0.09961 0.11133,0.09961l0.14844,-0.01953l0.04102,0.11914h0.15039l0.04883,0.10156h0.29102l0.01953,-0.15039l-0.2793,-0.05078l-0.02148,-0.16016l-0.18945,-0.04883c-0.06,-0.28 0.05086,-0.36047 0.13086,-0.23047l0.09961,0.00977l-0.04102,-0.24023l0.12109,-0.0293l-0.04102,-0.34961l-0.08984,-0.03125v-0.11914l0.40039,0.01953c-0.03,-0.21 0.01953,-0.31055 0.01953,-0.31055zM20.57031,26.69922c0.66,0.62 1.42,1.09086 2.25,1.38086c0.22,0.08 0.44969,0.14898 0.67969,0.20898c-0.04,0.03 -0.06078,0.0618 -0.05078,0.0918c0.03,0.08 -0.12891,0.1582 -0.12891,0.1582l-0.14062,0.05078l-0.09961,0.15039l-0.18945,0.06055l-0.04102,0.34961l-0.08984,0.06055v0.14844l-0.11914,0.03125v0.08008l-0.16016,0.01953l0.09961,0.25l0.13086,0.06055c0.22,0.03 0.12891,0.30859 0.12891,0.30859l0.13086,0.02148l0.05859,0.17969l0.13086,0.25977c0.05,0.2 0.18977,0.14891 0.25977,0.12891c0.06,0 0.13086,0.20117 0.13086,0.20117l0.63867,0.01953c0,0 -0.02992,0.05984 0.08008,0.08984c0.07,0.02 0.32102,0.04102 0.54102,0.04102v0.28906c-1.19,-0.02 -2.34992,-0.2707 -3.41992,-0.7207c-0.87,-0.36 -1.67992,-0.85852 -2.41992,-1.47852l-0.43164,-0.40039zM11.24219,27.28711c0.03734,0.00344 0.06586,0.01797 0.06836,0.04297c0.02,0.1 0.19922,0.15039 0.19922,0.15039c0.03,0.24 0.30062,0.38867 0.39063,0.13867c0.08,-0.24 0.13945,-0.09852 0.18945,0.02148c0.05,0.11 0.34961,0.38867 0.34961,0.38867h0.25l0.03125,0.23047c0.27,-0.01 0.34875,0.02063 0.46875,0.39063c0.11,0.38 0.41992,0.48047 0.41992,0.48047l0.2207,-0.02148c0,-0.19 0.23047,0.04086 0.23047,0.13086c0,0.1 0.42969,0.48047 0.42969,0.48047l0.43945,0.09961l0.08008,0.06055c0.27,0.34 0.54937,0.66852 0.85938,0.97852l-1.60937,1.61133c-1.34411,-1.37863 -2.42054,-3.01522 -3.15625,-4.83008l-0.00391,-0.08008c-0.165,-0.195 0.03055,-0.28375 0.14258,-0.27344zM28.65039,27.33008l0.38867,0.18945c0.05,0.07 0.26172,0.05078 0.26172,0.05078l0.05859,0.08984c0,0 0.13094,-0.01992 0.21094,0.08008c0.08,0.1 0.5,0.00977 0.5,0.00977l0.10938,0.09961l0.17969,0.07031l0.30078,0.00977l0.18945,0.17969c-0.3,0.14 -0.88992,0.09078 -0.91992,0.05078c-0.05,-0.05 -0.39063,-0.18945 -0.39063,-0.18945c0,0 -0.25859,-0.22039 -0.30859,-0.15039c-0.05,0.06 -0.26953,-0.08125 -0.26953,-0.03125c0,0.05 -0.21094,-0.11914 -0.21094,-0.11914l-0.33008,-0.10937l0.25,-0.05078l-0.03906,-0.16016c0.01,-0.01 0.01953,-0.00953 0.01953,-0.01953zM42.59961,28.54297c0,0 -1.19961,2.49441 -1.59961,3.69141c-0.4,1.197 -0.49922,3.09223 -0.69922,3.99023c-0.2,0.898 -0.60156,1.29688 -0.60156,1.29688c0,0 3.80156,-0.2987 5.60156,-1.5957c2.9,-1.995 3.39844,-5.38867 3.39844,-5.38867c0,0 -0.99883,1.49692 -2.29883,2.29492c-0.8,0.499 -2.30117,1.29653 -3.20117,1.89453c-0.8,0.599 -0.99844,1.39727 -1.39844,1.19727c-0.4,-0.2 0.1,-1.19614 0.5,-1.99414c0.3,-0.698 0.49883,-1.69653 0.29883,-2.39453zM7.5,28.8418c0,0 0.10039,0.79788 -0.09961,1.29688c-0.2,0.998 -0.00078,3.39167 0.19922,4.38867c0.2,0.898 0.80039,1.49726 0.40039,1.69727c-0.4,0.2 -0.60078,-0.39966 -1.30078,-1.09766c-0.6,-0.699 -2.49922,-1.29692 -3.69922,-2.29492c-1,-1.097 -1.90039,-2.19531 -1.90039,-2.19531c0,0 0.90039,2.09541 1.90039,3.69141c1,1.596 3.6,2.59358 4.5,2.89258c0.9,0.299 2.80078,0.39844 2.80078,0.39844c0,0 -0.50078,-0.59831 -0.80078,-1.69531c-0.3,-0.998 -0.20078,-3.39245 -0.80078,-4.68945c-0.7,-1.495 -1.19922,-2.39258 -1.19922,-2.39258zM31.75,29.00977l0.71094,0.71094c-0.03,0.12 -0.15094,0.18844 -0.21094,0.14844c0.03,0.03 0.08937,0.10063 0.10938,0.14063c0.04,0.07 0.13016,0.07 0.16016,0c0.03,-0.04 0.03125,-0.11945 0.03125,-0.18945l0.33008,0.33008c-0.04,0.08 -0.08055,0.16875 -0.06055,0.21875l0.14063,0.07031l0.01953,0.28125c0.11,0.11 0.34906,0.09836 0.53906,0.06836l0.07031,0.07031c-0.6,0.57 -1.24922,1.09102 -1.94922,1.54102v-0.16016c0.29,-0.21 0.2993,-0.59109 0.0293,-0.62109c-0.21,-0.03 -0.10992,-0.2493 0.08008,-0.2793l0.10938,-0.05078v-0.14844l0.37109,-0.33984v-0.26172l-0.80078,-0.66992c-0.17,-0.06 -0.17914,-0.26899 -0.11914,-0.45898c0.15,-0.13 0.28945,-0.26039 0.43945,-0.40039zM19.08008,29.7207c0.65,0.5 1.35914,0.92023 2.11914,1.24023c1.13,0.48 2.35133,0.73953 3.61133,0.76953v2.60938c-1.72,-0.03 -3.38039,-0.39961 -4.90039,-1.09961c-1.28,-0.58 -2.46,-1.38086 -3.5,-2.38086l0.37891,-0.37891c0.02,0.04 0.04102,0.07867 0.04102,0.13867c0.04,0.25 0.15039,0.20117 0.15039,0.20117l0.91992,-0.01953l0.32031,-0.28125l0.83008,-0.00977c0.41,-0.02 0.16008,-0.58984 0.08008,-0.58984c-0.05,-0.04 -0.06078,-0.11922 -0.05078,-0.19922zM15.91992,29.99023c0.14,0.01 0.32961,0.17023 0.34961,0.24023c0.02,0.03 0.06133,0.07914 0.11133,0.11914l-0.24023,0.24023c-0.15,-0.16 -0.28969,-0.32047 -0.42969,-0.48047h0.05859c0.03,-0.09 0.08039,-0.11914 0.15039,-0.11914zM25.48047,30.90039c0.1,0 0.19953,0.03008 0.26953,0.08008c0.17,0.13 0.41992,0.04883 0.41992,0.04883l0.16992,0.2207c-0.37,0.05 -0.75062,0.07984 -1.14062,0.08984v-0.39062c0.05,-0.04 0.16125,-0.05883 0.28125,-0.04883zM16.14063,31.13086c1.06,1.03 2.27008,1.84922 3.58008,2.44922c1.58,0.72 3.29984,1.12039 5.08984,1.15039v2.25977c-4.00324,-0.04991 -7.62198,-1.65732 -10.28125,-4.25zM33.86914,31.13086l1.60156,1.60742c-2.65717,2.59109 -6.27167,4.19953 -10.27148,4.25195v-2.26953c1.18,-0.01 2.33164,-0.19148 3.43164,-0.52148l0.2793,0.08984l0.08008,0.26172l0.12891,-0.02148l0.10156,-0.08008l0.37891,-0.00977l0.20117,-0.17969l0.20898,-0.03906l1.51953,-1.29102c0.84,-0.5 1.61984,-1.09883 2.33984,-1.79883zM26.53906,31.60938l0.03125,0.07031l0.26953,0.08984l0.19922,0.05078l0.06055,0.26953l0.15039,0.01953l0.05078,0.17969c0.17,0.13 -0.05078,0.41016 -0.05078,0.41016v0.36133l0.13086,0.07031l-0.02148,0.12891l0.21094,0.21094l0.24023,0.01953l0.40039,0.41992c-0.96,0.27 -1.97172,0.40969 -3.01172,0.42969v-2.60937c0.45,-0.01 0.89984,-0.05109 1.33984,-0.12109zM39.5,33.5293c0,0 -2.00039,1.79714 -2.90039,2.99414c-0.8,1.098 -1.00039,2.19419 -1.90039,2.99219c-1,0.897 -1.59961,1.09766 -1.59961,1.09766c0,0 1.09961,0.20044 1.59961,-0.10156c0.6,-0.2 1.40156,-0.00056 2.10156,0.39844c0.7,0.399 2.89883,0.39956 4.79883,-0.39844c3,-1.197 3.70117,-3.49219 3.70117,-3.49219c0,0 -1.00117,0.69944 -2.20117,1.39844c-1.2,0.699 -2.39883,0.69766 -3.29883,0.59766c-0.9,-0.1 -1.60117,0.201 -2.20117,0.5c-0.6,0.299 -1.09961,0 -1.09961,0c0,0 1.00078,-0.59892 1.80078,-2.29492c0.6,-1.197 1.19922,-3.69141 1.19922,-3.69141zM10.80078,33.62891c0,0 0.5,2.69402 1.5,4.29102c0.6,1.097 1.49844,1.4957 1.39844,1.5957c-0.1,0.1 -0.89922,0.09844 -1.19922,-0.10156c-0.3,-0.1 -1.1,-0.39805 -2,-0.49805c-0.9,-0.1 -2.19922,0.29839 -3.69922,-0.59961c-0.7,-0.298 -2.10156,-1.39453 -2.10156,-1.39453c0,0 0.2,0.50009 1.5,1.99609c2,2.195 4.3,2.29297 5.5,2.29297c1.3,0 2.7,-0.49961 3.5,-0.59961c0.8,-0.1 2,0 2,0c0,0 -0.89883,-0.39926 -1.79883,-1.19727c-0.9,-0.698 -0.7,-1.59541 -2,-3.19141c-1.3,-1.696 -2.59961,-2.59375 -2.59961,-2.59375zM29.82813,40.90625c-0.25937,-0.02034 -0.50352,-0.02084 -0.72852,0.00391c-1.8,0.1 -4.09961,0.5 -4.09961,0.5c0,0 -1.80078,-0.19944 -2.80078,-0.39844c-1,-0.2 -2.7,-0.10095 -5,0.49805c-2.2,0.599 -3.49883,0.99866 -4.79883,1.09766c-1.3,0.099 -3.09961,-0.79687 -3.09961,-0.79687c0,0 0.29844,0.79748 1.89844,1.39648c1.5,0.698 4.10039,0.89727 5.40039,0.69727c1.3,-0.1 1.90039,-0.39887 3.40039,-1.29687c1.5,-0.898 2.19961,-0.9967 3.09961,-1.0957c0.9,-0.099 0.90039,0.09961 0.90039,0.09961c0,0 -1.5,0.79731 -3,1.69531c-1.4,0.998 -2.5,1.99609 -2.5,1.99609l0.59961,0.59766c0,0 0.19961,-0.29831 1.59961,-1.69531c1.5,-1.397 3.8,-2.39453 4.5,-2.39453c0.7,0 2.6,0.99909 4,1.99609c1.4,0.997 2.20117,2.19336 2.20117,2.19336l0.5,-0.59961c0,0 -2.1,-1.79458 -3,-2.39258c-0.8,-0.698 -2.5,-1.29687 -2.5,-1.29687c0,0 0.9,-0.1 1.5,0c0.6,0 1.89961,0.69614 3.09961,1.49414c1.2,0.798 2.29961,0.99922 5.09961,0.69922c4.6,-0.399 4.80078,-1.89453 4.80078,-1.89453c0,0 -1.50039,0.79727 -3.40039,0.69727c-1.3,0 -3.7,-0.79827 -5,-1.19727c-0.975,-0.29925 -1.89375,-0.54248 -2.67187,-0.60352z"></path></g></g></svg>